<!--?xml version="1.0" encoding="UTF-8" standalone="no"?-->
<!-- Created with Inkscape (http://www.inkscape.org/) -->

<svg xmlns:dc="http://purl.org/dc/elements/1.1/" xmlns:cc="http://creativecommons.org/ns#" xmlns:rdf="http://www.w3.org/1999/02/22-rdf-syntax-ns#" xmlns:svg="http://www.w3.org/2000/svg" xmlns="http://www.w3.org/2000/svg" xmlns:sodipodi="http://sodipodi.sourceforge.net/DTD/sodipodi-0.dtd" xmlns:inkscape="http://www.inkscape.org/namespaces/inkscape" width="107.26434mm" height="16.267332mm" viewBox="0 0 107.26434 16.267332" version="1.1" id="svg8" sodipodi:docname="letras4.svg" inkscape:version="0.92.3 (2405546, 2018-03-11)" style="">
  <defs id="defs2"></defs>
  <sodipodi:namedview id="base" pagecolor="#ffffff" bordercolor="#666666" borderopacity="1.0" inkscape:pageopacity="0.0" inkscape:pageshadow="2" inkscape:zoom="2.8" inkscape:cx="185.50451" inkscape:cy="-33.142678" inkscape:document-units="mm" inkscape:current-layer="layer1" showgrid="false" inkscape:window-width="1366" inkscape:window-height="705" inkscape:window-x="-8" inkscape:window-y="-8" inkscape:window-maximized="1" fit-margin-top="0" fit-margin-left="0" fit-margin-right="-0.2" fit-margin-bottom="0" showguides="true" inkscape:guide-bbox="true">
    <sodipodi:guide position="30.427083,4.6302083" orientation="1,0" id="guide3864" inkscape:locked="false"></sodipodi:guide>
  </sodipodi:namedview>
  <metadata id="metadata5">
    <rdf:rdf>
      <cc:work rdf:about="">
        <dc:format>image/svg+xml</dc:format>
        <dc:type rdf:resource="http://purl.org/dc/dcmitype/StillImage"></dc:type>
        <dc:title></dc:title>
      </cc:work>
    </rdf:rdf>
  </metadata>
  <g inkscape:label="Capa 1" inkscape:groupmode="layer" id="layer1" transform="translate(-48.79031,-82.166037)">
    <path style="fill:none;stroke:#000000;stroke-width:0.26458332px;stroke-linecap:butt;stroke-linejoin:miter;stroke-opacity:1" d="m 49.083892,82.232162 c 0,15.40253 0,15.59152 0,15.59152 l 9.638395,0.0945" id="path3728" inkscape:connector-curvature="0" class="KYKzHxOz_0"></path>
    <path style="fill:none;stroke:#000000;stroke-width:0.26458332px;stroke-linecap:butt;stroke-linejoin:miter;stroke-opacity:1" d="m 61.599626,88.237277 0.803198,-0.56696 0.968566,-0.4961 0.850445,-0.25986 0.448847,-0.0709 0.779576,-0.0709 0.590587,0.0236 0.425222,0.11812 0.377977,0.0945 0.4016,0.18898 0.283482,0.14174 0.425224,0.33073 0.354352,0.30711 0.259859,0.28348 0.259858,0.42522 0.283483,0.47247 0.07087,0.37798 0.236235,0.77958 -0.02362,7.5359 0.47247,0.35435" id="path3732" inkscape:connector-curvature="0" class="KYKzHxOz_1"></path>
    <path style="fill:none;stroke:#000000;stroke-width:0.26458332px;stroke-linecap:butt;stroke-linejoin:miter;stroke-opacity:1" d="m 69.277266,92.465887 -0.755952,-0.11812 -0.566964,-0.21261 -1.015811,-0.16536 c 0,0 -0.4016,-0.11812 -1.27567,-0.0472 -0.874069,0.0709 -1.559152,0.11812 -1.559152,0.11812 l -0.803199,0.0472 -0.614211,0.28348 -0.448847,0.35436 -0.401601,0.16536 -0.307104,0.23624 -0.18899,0.33073 -0.212611,0.35435 -0.188986,0.21261 -0.236236,0.77958 0.118118,0.82682 0.165364,0.54334 0.401601,0.73233 0.377975,0.4016 0.637834,0.49609 0.496094,0.28349 0.897694,0.16536 1.086681,0.0472 0.614212,-0.0472 0.94494,-0.23623 0.519717,-0.21262 0.590588,-0.28348 0.377976,-0.23623 0.47247,-0.4016 0.354353,-0.30711 0.496094,-0.54334 0.07087,-0.35435" id="path3734" inkscape:connector-curvature="0" class="KYKzHxOz_2"></path>
    <path style="fill:none;stroke:#000000;stroke-width:0.26458332px;stroke-linecap:butt;stroke-linejoin:miter;stroke-opacity:1" d="m 79.217393,82.298347 c 0,15.40253 0,15.59152 0,15.59152 l 9.638395,0.0945" id="path3728-1" inkscape:connector-curvature="0" class="KYKzHxOz_3"></path>
    <path style="fill:none;stroke:#000000;stroke-width:0.26458332px;stroke-linecap:butt;stroke-linejoin:miter;stroke-opacity:1" d="m 92.389868,82.317117 c 0,15.40253 0,15.59152 0,15.59152 l 9.638392,0.0945" id="path3728-8" inkscape:connector-curvature="0" class="KYKzHxOz_4"></path>
    <path style="fill:none;stroke:#000000;stroke-width:0.26458332px;stroke-linecap:butt;stroke-linejoin:miter;stroke-opacity:1" d="m 104.71208,87.986967 0.8032,-0.56696 0.96856,-0.4961 0.85045,-0.25986 0.44884,-0.0709 0.77958,-0.0709 0.59059,0.0236 0.42522,0.11812 0.37798,0.0945 0.4016,0.18898 0.28348,0.14174 0.42522,0.33073 0.35435,0.30711 0.25986,0.28348 0.25986,0.42522 0.28348,0.47247 0.0709,0.37798 0.23624,0.77958 -0.0236,7.5359 0.47247,0.35435" id="path3732-0" inkscape:connector-curvature="0" class="KYKzHxOz_5"></path>
    <path style="fill:none;stroke:#000000;stroke-width:0.26458332px;stroke-linecap:butt;stroke-linejoin:miter;stroke-opacity:1" d="m 112.38972,92.215577 -0.75595,-0.11812 -0.56697,-0.21261 -1.01581,-0.16536 c 0,0 -0.4016,-0.11812 -1.27567,-0.0472 -0.87407,0.0709 -1.55915,0.11812 -1.55915,0.11812 l -0.8032,0.0472 -0.61421,0.28348 -0.44885,0.35436 -0.4016,0.16536 -0.3071,0.23624 -0.18899,0.33073 -0.21261,0.35435 -0.18899,0.21261 -0.23624,0.77958 0.11812,0.82682 0.16537,0.54334 0.4016,0.73233 0.37797,0.4016 0.63784,0.49609 0.49609,0.28349 0.89769,0.16536 1.08669,0.0472 0.61421,-0.0472 0.94494,-0.23623 0.51971,-0.21262 0.59059,-0.28348 0.37798,-0.23623 0.47247,-0.4016 0.35435,-0.30711 0.49609,-0.54334 0.0709,-0.35435" id="path3734-0" inkscape:connector-curvature="0" class="KYKzHxOz_6"></path>
    <path style="fill:none;stroke:#000000;stroke-width:0.26458332px;stroke-linecap:butt;stroke-linejoin:miter;stroke-opacity:1" d="m 116.68967,86.630877 c 0,11.5519 0,11.5519 0,11.5519" id="path3802" inkscape:connector-curvature="0" class="KYKzHxOz_7"></path>
    <path style="fill:none;stroke:#000000;stroke-width:0.26458332px;stroke-linecap:butt;stroke-linejoin:miter;stroke-opacity:1" d="m 116.80778,89.867297 0.51972,-0.63783 0.51972,-0.70871 0.3071,-0.35435 0.25986,-0.23623 0.30711,-0.30711 0.4016,-0.21261 0.4016,-0.21261 0.47247,-0.25986 0.54334,-0.16537 0.54334,-0.0472 h 0.54334 l 0.49609,0.0236 0.56697,0.18899 0.4016,0.16537 0.51972,0.42522 0.35435,0.35435 0.33073,0.59059 0.16536,0.68508 0.25986,1.2048 v 7.79576" id="path3804" inkscape:connector-curvature="0" class="KYKzHxOz_8"></path>
    <path style="fill:none;stroke:#000000;stroke-width:0.26458332px;stroke-linecap:butt;stroke-linejoin:miter;stroke-opacity:1" d="m 124.72166,90.363417 0.61421,-0.92134 0.30711,-0.56696 0.21261,-0.25986 0.54334,-0.54334 0.44885,-0.42523 0.56696,-0.37797 0.44885,-0.23624 0.49609,-0.25986 0.4016,-0.0945 h 1.6064 l 0.49609,0.33073 0.33073,0.11811 0.44885,0.37798 0.18899,0.28348 0.33073,0.47248 0.3071,0.68508 0.21261,0.7087 0.0945,1.03944 0.0236,7.51227" id="path3806" inkscape:connector-curvature="0" class="KYKzHxOz_9"></path>
    <path style="fill:none;stroke:#000000;stroke-width:0.26458332px;stroke-linecap:butt;stroke-linejoin:miter;stroke-opacity:1" d="m 136.79329,86.630877 0.0473,11.59915" id="path3808" inkscape:connector-curvature="0" class="KYKzHxOz_10"></path>
    <path style="fill:none;stroke:#000000;stroke-width:0.26458332px;stroke-linecap:butt;stroke-linejoin:miter;stroke-opacity:1" d="m 141.28178,82.638507 0.0473,13.84338 0.18899,0.7087 0.23623,0.33073 0.51972,0.51972 0.61422,0.0945 1.18118,-0.0945 0.33073,-0.23623 0.70871,-0.28349 -0.0945,-0.0472" id="path3816" inkscape:connector-curvature="0" class="KYKzHxOz_11"></path>
    <path style="fill:none;stroke:#000000;stroke-width:0.26458332px;stroke-linecap:butt;stroke-linejoin:miter;stroke-opacity:1" d="m 139.48638,86.748997 h 4.86647" id="path3818" inkscape:connector-curvature="0" class="KYKzHxOz_12"></path>
    <path style="fill:none;stroke:#000000;stroke-width:0.26458332px;stroke-linecap:butt;stroke-linejoin:miter;stroke-opacity:1" d="m 136.79329,82.166037 v 1.41741" id="path3820" inkscape:connector-curvature="0" class="KYKzHxOz_13"></path>
    <path style="fill:none;stroke:#000000;stroke-width:0.26458332px;stroke-linecap:butt;stroke-linejoin:miter;stroke-opacity:1" d="m 147.70696,87.977517 0.8032,-0.56696 0.96857,-0.4961 0.85045,-0.25986 0.44885,-0.0709 0.77958,-0.0709 0.59059,0.0236 0.42522,0.11812 0.37798,0.0945 0.40161,0.18898 0.28348,0.14174 0.42523,0.33073 0.35435,0.30711 0.25986,0.28348 0.25986,0.42522 0.28348,0.47247 0.0709,0.37798 0.23624,0.77958 -0.0236,7.5359 0.47247,0.35435" id="path3732-0-2" inkscape:connector-curvature="0" class="KYKzHxOz_14"></path>
    <path style="fill:none;stroke:#000000;stroke-width:0.26458332px;stroke-linecap:butt;stroke-linejoin:miter;stroke-opacity:1" d="m 155.38464,92.206127 -0.75596,-0.11812 -0.56696,-0.21261 -1.01582,-0.16536 c 0,0 -0.4016,-0.11812 -1.27568,-0.0472 -0.87407,0.0709 -1.55916,0.11812 -1.55916,0.11812 l -0.8032,0.0472 -0.61422,0.28348 -0.44885,0.35436 -0.4016,0.16536 -0.30711,0.23624 -0.18899,0.33073 -0.21261,0.35435 -0.18899,0.21261 -0.23623,0.77958 0.11812,0.82682 0.16536,0.54334 0.4016,0.73233 0.37798,0.4016 0.63784,0.49609 0.49609,0.28349 0.8977,0.16536 1.08669,0.0472 0.61422,-0.0472 0.94494,-0.23623 0.51972,-0.21262 0.59059,-0.28348 0.37798,-0.23623 0.47247,-0.4016 0.35436,-0.30711 0.49609,-0.54334 0.0709,-0.35435" id="path3734-0-9" inkscape:connector-curvature="0" class="KYKzHxOz_15"></path>
  </g>
<style data-made-with="vivus-instant">.KYKzHxOz_0{stroke-dasharray:26 28;stroke-dashoffset:27;animation:KYKzHxOz_draw 263ms linear 0ms forwards;}.KYKzHxOz_1{stroke-dasharray:19 21;stroke-dashoffset:20;animation:KYKzHxOz_draw 195ms linear 263ms forwards;}.KYKzHxOz_2{stroke-dasharray:22 24;stroke-dashoffset:23;animation:KYKzHxOz_draw 224ms linear 459ms forwards;}.KYKzHxOz_3{stroke-dasharray:26 28;stroke-dashoffset:27;animation:KYKzHxOz_draw 263ms linear 684ms forwards;}.KYKzHxOz_4{stroke-dasharray:26 28;stroke-dashoffset:27;animation:KYKzHxOz_draw 263ms linear 947ms forwards;}.KYKzHxOz_5{stroke-dasharray:19 21;stroke-dashoffset:20;animation:KYKzHxOz_draw 195ms linear 1211ms forwards;}.KYKzHxOz_6{stroke-dasharray:22 24;stroke-dashoffset:23;animation:KYKzHxOz_draw 224ms linear 1407ms forwards;}.KYKzHxOz_7{stroke-dasharray:12 14;stroke-dashoffset:13;animation:KYKzHxOz_draw 127ms linear 1631ms forwards;}.KYKzHxOz_8{stroke-dasharray:20 22;stroke-dashoffset:21;animation:KYKzHxOz_draw 205ms linear 1758ms forwards;}.KYKzHxOz_9{stroke-dasharray:20 22;stroke-dashoffset:21;animation:KYKzHxOz_draw 205ms linear 1964ms forwards;}.KYKzHxOz_10{stroke-dasharray:12 14;stroke-dashoffset:13;animation:KYKzHxOz_draw 127ms linear 2169ms forwards;}.KYKzHxOz_11{stroke-dasharray:19 21;stroke-dashoffset:20;animation:KYKzHxOz_draw 195ms linear 2296ms forwards;}.KYKzHxOz_12{stroke-dasharray:5 7;stroke-dashoffset:6;animation:KYKzHxOz_draw 58ms linear 2491ms forwards;}.KYKzHxOz_13{stroke-dasharray:2 4;stroke-dashoffset:3;animation:KYKzHxOz_draw 29ms linear 2550ms forwards;}.KYKzHxOz_14{stroke-dasharray:19 21;stroke-dashoffset:20;animation:KYKzHxOz_draw 195ms linear 2579ms forwards;}.KYKzHxOz_15{stroke-dasharray:22 24;stroke-dashoffset:23;animation:KYKzHxOz_draw 224ms linear 2775ms forwards;}@keyframes KYKzHxOz_draw{100%{stroke-dashoffset:0;}}@keyframes KYKzHxOz_fade{0%{stroke-opacity:1;}94.44444444444444%{stroke-opacity:1;}100%{stroke-opacity:0;}}</style></svg>
